<?xml version="1.0" encoding="UTF-8" standalone="no"?>
<!DOCTYPE svg PUBLIC "-//W3C//DTD SVG 1.1//EN"
 "http://www.w3.org/Graphics/SVG/1.1/DTD/svg11.dtd">
<!-- Generated by graphviz version 9.0.0 (20230911.1827)
 -->
<!-- Pages: 1 -->
<svg width="1602pt" height="260pt"
 viewBox="0.00 0.00 1602.17 260.00" xmlns="http://www.w3.org/2000/svg" xmlns:xlink="http://www.w3.org/1999/xlink">
<g id="graph0" class="graph" transform="scale(1 1) rotate(0) translate(4 256)">
<polygon fill="white" stroke="none" points="-4,4 -4,-256 1598.17,-256 1598.17,4 -4,4"/>
<!-- [root] local_file.localfile (expand) -->
<g id="node1" class="node">
<title>[root] local_file.localfile (expand)</title>
<polygon fill="none" stroke="black" points="394.18,-108 279.18,-108 279.18,-72 394.18,-72 394.18,-108"/>
<text text-anchor="middle" x="336.68" y="-84.95" font-family="Times,serif" font-size="14.00">local_file.localfile</text>
</g>
<!-- [root] provider[&quot;registry.terraform.io/hashicorp/local&quot;] -->
<g id="node3" class="node">
<title>[root] provider[&quot;registry.terraform.io/hashicorp/local&quot;]</title>
<polygon fill="none" stroke="black" points="432.68,-36 163.18,-18 432.68,0 702.18,-18 432.68,-36"/>
<text text-anchor="middle" x="432.68" y="-12.95" font-family="Times,serif" font-size="14.00">provider[&quot;registry.terraform.io/hashicorp/local&quot;]</text>
</g>
<!-- [root] local_file.localfile (expand)&#45;&gt;[root] provider[&quot;registry.terraform.io/hashicorp/local&quot;] -->
<g id="edge1" class="edge">
<title>[root] local_file.localfile (expand)&#45;&gt;[root] provider[&quot;registry.terraform.io/hashicorp/local&quot;]</title>
<path fill="none" stroke="black" d="M360.41,-71.7C372.95,-62.55 388.49,-51.22 401.95,-41.41"/>
<polygon fill="black" stroke="black" points="403.62,-44.52 409.64,-35.8 399.5,-38.86 403.62,-44.52"/>
</g>
<!-- [root] local_sensitive_file.localsensitivefile (expand) -->
<g id="node2" class="node">
<title>[root] local_sensitive_file.localsensitivefile (expand)</title>
<polygon fill="none" stroke="black" points="628.81,-108 412.56,-108 412.56,-72 628.81,-72 628.81,-108"/>
<text text-anchor="middle" x="520.68" y="-84.95" font-family="Times,serif" font-size="14.00">local_sensitive_file.localsensitivefile</text>
</g>
<!-- [root] local_sensitive_file.localsensitivefile (expand)&#45;&gt;[root] provider[&quot;registry.terraform.io/hashicorp/local&quot;] -->
<g id="edge2" class="edge">
<title>[root] local_sensitive_file.localsensitivefile (expand)&#45;&gt;[root] provider[&quot;registry.terraform.io/hashicorp/local&quot;]</title>
<path fill="none" stroke="black" d="M498.93,-71.7C487.73,-62.79 473.93,-51.81 461.83,-42.19"/>
<polygon fill="black" stroke="black" points="464.17,-39.57 454.16,-36.09 459.81,-45.05 464.17,-39.57"/>
</g>
<!-- [root] provider[&quot;registry.terraform.io/hashicorp/random&quot;] -->
<g id="node4" class="node">
<title>[root] provider[&quot;registry.terraform.io/hashicorp/random&quot;]</title>
<polygon fill="none" stroke="black" points="1012.68,-36 727.98,-18 1012.68,0 1297.38,-18 1012.68,-36"/>
<text text-anchor="middle" x="1012.68" y="-12.95" font-family="Times,serif" font-size="14.00">provider[&quot;registry.terraform.io/hashicorp/random&quot;]</text>
</g>
<!-- [root] random_string.randomstring (expand) -->
<g id="node5" class="node">
<title>[root] random_string.randomstring (expand)</title>
<polygon fill="none" stroke="black" points="1098.68,-108 926.68,-108 926.68,-72 1098.68,-72 1098.68,-108"/>
<text text-anchor="middle" x="1012.68" y="-84.95" font-family="Times,serif" font-size="14.00">random_string.randomstring</text>
</g>
<!-- [root] random_string.randomstring (expand)&#45;&gt;[root] provider[&quot;registry.terraform.io/hashicorp/random&quot;] -->
<g id="edge8" class="edge">
<title>[root] random_string.randomstring (expand)&#45;&gt;[root] provider[&quot;registry.terraform.io/hashicorp/random&quot;]</title>
<path fill="none" stroke="black" d="M1012.68,-71.7C1012.68,-64.41 1012.68,-55.73 1012.68,-47.54"/>
<polygon fill="black" stroke="black" points="1016.18,-47.62 1012.68,-37.62 1009.18,-47.62 1016.18,-47.62"/>
</g>
<!-- [root] output.local_file (expand) -->
<g id="node6" class="node">
<title>[root] output.local_file (expand)</title>
<ellipse fill="none" stroke="black" cx="130.68" cy="-162" rx="130.68" ry="18"/>
<text text-anchor="middle" x="130.68" y="-156.95" font-family="Times,serif" font-size="14.00">[root] output.local_file (expand)</text>
</g>
<!-- [root] output.local_file (expand)&#45;&gt;[root] local_file.localfile (expand) -->
<g id="edge3" class="edge">
<title>[root] output.local_file (expand)&#45;&gt;[root] local_file.localfile (expand)</title>
<path fill="none" stroke="black" d="M178.2,-144.85C206.9,-135.1 243.79,-122.57 274.75,-112.04"/>
<polygon fill="black" stroke="black" points="275.66,-115.43 284,-108.9 273.41,-108.8 275.66,-115.43"/>
</g>
<!-- [root] output.randomstring (expand) -->
<g id="node7" class="node">
<title>[root] output.randomstring (expand)</title>
<ellipse fill="none" stroke="black" cx="925.68" cy="-162" rx="145.52" ry="18"/>
<text text-anchor="middle" x="925.68" y="-156.95" font-family="Times,serif" font-size="14.00">[root] output.randomstring (expand)</text>
</g>
<!-- [root] output.randomstring (expand)&#45;&gt;[root] random_string.randomstring (expand) -->
<g id="edge4" class="edge">
<title>[root] output.randomstring (expand)&#45;&gt;[root] random_string.randomstring (expand)</title>
<path fill="none" stroke="black" d="M946.74,-144.05C957.48,-135.41 970.73,-124.75 982.54,-115.26"/>
<polygon fill="black" stroke="black" points="984.43,-118.22 990.03,-109.22 980.05,-112.77 984.43,-118.22"/>
</g>
<!-- [root] provider[&quot;registry.terraform.io/hashicorp/local&quot;] (close) -->
<g id="node8" class="node">
<title>[root] provider[&quot;registry.terraform.io/hashicorp/local&quot;] (close)</title>
<ellipse fill="none" stroke="black" cx="520.68" cy="-162" rx="241.74" ry="18"/>
<text text-anchor="middle" x="520.68" y="-156.95" font-family="Times,serif" font-size="14.00">[root] provider[&quot;registry.terraform.io/hashicorp/local&quot;] (close)</text>
</g>
<!-- [root] provider[&quot;registry.terraform.io/hashicorp/local&quot;] (close)&#45;&gt;[root] local_file.localfile (expand) -->
<g id="edge5" class="edge">
<title>[root] provider[&quot;registry.terraform.io/hashicorp/local&quot;] (close)&#45;&gt;[root] local_file.localfile (expand)</title>
<path fill="none" stroke="black" d="M475.67,-143.88C450.8,-134.41 419.66,-122.57 393.16,-112.49"/>
<polygon fill="black" stroke="black" points="394.51,-109.26 383.92,-108.97 392.02,-115.8 394.51,-109.26"/>
</g>
<!-- [root] provider[&quot;registry.terraform.io/hashicorp/local&quot;] (close)&#45;&gt;[root] local_sensitive_file.localsensitivefile (expand) -->
<g id="edge6" class="edge">
<title>[root] provider[&quot;registry.terraform.io/hashicorp/local&quot;] (close)&#45;&gt;[root] local_sensitive_file.localsensitivefile (expand)</title>
<path fill="none" stroke="black" d="M520.68,-143.7C520.68,-136.41 520.68,-127.73 520.68,-119.54"/>
<polygon fill="black" stroke="black" points="524.18,-119.62 520.68,-109.62 517.18,-119.62 524.18,-119.62"/>
</g>
<!-- [root] provider[&quot;registry.terraform.io/hashicorp/random&quot;] (close) -->
<g id="node9" class="node">
<title>[root] provider[&quot;registry.terraform.io/hashicorp/random&quot;] (close)</title>
<ellipse fill="none" stroke="black" cx="1341.68" cy="-162" rx="252.49" ry="18"/>
<text text-anchor="middle" x="1341.68" y="-156.95" font-family="Times,serif" font-size="14.00">[root] provider[&quot;registry.terraform.io/hashicorp/random&quot;] (close)</text>
</g>
<!-- [root] provider[&quot;registry.terraform.io/hashicorp/random&quot;] (close)&#45;&gt;[root] random_string.randomstring (expand) -->
<g id="edge7" class="edge">
<title>[root] provider[&quot;registry.terraform.io/hashicorp/random&quot;] (close)&#45;&gt;[root] random_string.randomstring (expand)</title>
<path fill="none" stroke="black" d="M1263.71,-144.41C1216.37,-134.34 1155.66,-121.42 1105.8,-110.81"/>
<polygon fill="black" stroke="black" points="1106.67,-107.42 1096.16,-108.76 1105.21,-114.27 1106.67,-107.42"/>
</g>
<!-- [root] root -->
<g id="node10" class="node">
<title>[root] root</title>
<ellipse fill="none" stroke="black" cx="722.68" cy="-234" rx="49.3" ry="18"/>
<text text-anchor="middle" x="722.68" y="-228.95" font-family="Times,serif" font-size="14.00">[root] root</text>
</g>
<!-- [root] root&#45;&gt;[root] output.local_file (expand) -->
<g id="edge9" class="edge">
<title>[root] root&#45;&gt;[root] output.local_file (expand)</title>
<path fill="none" stroke="black" d="M676.05,-227.63C593.91,-218.14 418.08,-197.76 269.68,-180 259,-178.72 247.86,-177.38 236.73,-176.03"/>
<polygon fill="black" stroke="black" points="237.49,-172.59 227.14,-174.86 236.64,-179.54 237.49,-172.59"/>
</g>
<!-- [root] root&#45;&gt;[root] output.randomstring (expand) -->
<g id="edge10" class="edge">
<title>[root] root&#45;&gt;[root] output.randomstring (expand)</title>
<path fill="none" stroke="black" d="M757.58,-220.97C787.68,-210.59 831.77,-195.38 867.25,-183.15"/>
<polygon fill="black" stroke="black" points="868.21,-186.52 876.53,-179.95 865.93,-179.9 868.21,-186.52"/>
</g>
<!-- [root] root&#45;&gt;[root] provider[&quot;registry.terraform.io/hashicorp/local&quot;] (close) -->
<g id="edge11" class="edge">
<title>[root] root&#45;&gt;[root] provider[&quot;registry.terraform.io/hashicorp/local&quot;] (close)</title>
<path fill="none" stroke="black" d="M687.96,-220.97C658.41,-210.73 615.32,-195.8 580.28,-183.65"/>
<polygon fill="black" stroke="black" points="581.71,-180.44 571.11,-180.48 579.42,-187.06 581.71,-180.44"/>
</g>
<!-- [root] root&#45;&gt;[root] provider[&quot;registry.terraform.io/hashicorp/random&quot;] (close) -->
<g id="edge12" class="edge">
<title>[root] root&#45;&gt;[root] provider[&quot;registry.terraform.io/hashicorp/random&quot;] (close)</title>
<path fill="none" stroke="black" d="M769.46,-227.71C859.82,-217.49 1061.6,-194.67 1199.7,-179.06"/>
<polygon fill="black" stroke="black" points="1199.73,-182.58 1209.27,-177.97 1198.94,-175.62 1199.73,-182.58"/>
</g>
</g>
</svg>
